<?xml version="1.0" encoding="utf-8"?>
<!-- Generator: Adobe Illustrator 24.3.0, SVG Export Plug-In . SVG Version: 6.00 Build 0)  -->
<svg width="45px" height="45px" version="1.1" id="Layer_1" xmlns="http://www.w3.org/2000/svg" xmlns:xlink="http://www.w3.org/1999/xlink" x="0px" y="0px"
	 viewBox="0 0 45 45" style="enable-background:new 0 0 45 45;" xml:space="preserve">
<style type="text/css">
	.st0{fill:#FFFCE6;}
</style>
<g>
	<path d="M2.8,4.4l27.8,16.1l-9.3,3.9l10.4,15.3l-5.9,3.7L15.2,28.6l-7,7.5L2.8,4.4 M3,3.1c-0.3,0-0.6,0.1-1,0.3
		C1.7,3.6,1.5,4.1,1.6,4.6L7,36.3c0.1,0.5,0.5,0.8,0.8,0.9c0.1,0,0.1,0,0.2,0c0.4,0.1,0.8-0.1,1.1-0.3l6-6.3l9.7,13.6
		c0.1,0.3,0.5,0.4,0.8,0.4s0.7,0,0.9-0.1l5.8-3.7c0.3-0.1,0.5-0.5,0.5-0.8s0-0.7-0.1-0.9l-9.4-13.9l8-3.3c0.4-0.1,0.8-0.6,0.8-1.1
		s-0.2-0.9-0.6-1.2L3.3,3.3C3.3,3.3,3.2,3.2,3,3.1L3,3.1z"/>
</g>
<polygon class="st0" points="1.1,1.4 6.6,34.1 14,26.4 24.3,41 30.3,37.2 20.4,21.9 29.9,17.9 "/>
<g>
	<path d="M1.3,1.8l27.8,16.1l-9.3,3.9l10.4,15.3l-5.8,3.7L13.8,26l-7,7.5L1.3,1.8 M1.6,0.5c-0.3,0-0.7,0-0.9,0.2
		C0.3,1,0.1,1.5,0.2,2l5.4,31.7c0.1,0.5,0.5,0.8,0.8,0.9c0.1,0,0.1,0,0.2,0c0.4,0.1,0.8-0.1,1.1-0.3l6-6.3l9.7,13.6
		c0.1,0.3,0.5,0.4,0.8,0.4s0.7,0,0.9-0.1l5.8-3.7c0.3-0.1,0.5-0.5,0.5-0.8s0-0.7-0.1-0.9l-9.3-14l8-3.3c0.4-0.1,0.8-0.6,0.8-1.1
		s-0.2-0.9-0.6-1.2L2,0.7C1.9,0.7,1.7,0.6,1.6,0.5L1.6,0.5z"/>
</g>
<polyline points="5.7,34.1 7.2,36.7 8.8,36.4 15.4,29.6 13.7,27.2 7.1,34 "/>
<polygon points="31.4,36.4 32.8,39 31.9,40.4 25.8,44 23.9,41.9 30.5,37.7 "/>
<path d="M30.5,17.4l1.4,2.6l-1.2,1.4c0,0-7.8,2.8-7.8,2.9s-1.6-1.8-1.6-1.8l8.7-4.4"/>
</svg>
