<?xml version="1.0" encoding="utf-8"?>
<!-- Generator: Adobe Illustrator 24.3.0, SVG Export Plug-In . SVG Version: 6.00 Build 0)  -->
<svg version="1.1" id="Layer_1" xmlns="http://www.w3.org/2000/svg" xmlns:xlink="http://www.w3.org/1999/xlink" x="0px" y="0px"
	 viewBox="0 0 208.8 351.2" style="enable-background:new 0 0 208.8 351.2;" xml:space="preserve">
<style type="text/css">
	.st0{fill:#FFFADD;}
</style>
<path class="st0" d="M46.8,185.7v60.4v40.6v22.5l8.7,18.2l10.2,11.3l13.4,3.6l12.8-8l4.3-14.2L94,289.6l2.2-28l12,7.3l10.9-2.2
	l12.7-9.4l7.3-8.1l25.7-10.4l15.9-21.5l10.2-26.8l8.7-33.8l2.5-33.9l-4-39.2c0,0-5.2-13.3-5.2-13.8c0-0.4,3-10.8,3-10.8l-4.4-15.8
	L156,16.4l-29.2-6h-20.3L89.6,21.1l-2.3,13.2l-8.7,4.9l-35,24.9L23.3,94.6l-12.8,27.9l-4.8,18l1.6,21.7l7.4,17.8l15.3,7.1h13.8
	L46.8,185.7z"/>
<path d="M2.2,152.4c0,0.5,1.8,34.5,28,37.9c0.2,0,0.4,0.1,0.6,0.1c4.1,0.4,8.4,0,12.6-1.4c1.2,20.7,2.2,53.1,0.4,92.6
	c-1.2,25.9,3.5,44.5,14,55.1c8,8.1,16.6,8.7,18.5,8.7c1.5,0.2,8.3,0.9,14.2-4.3c6.6-5.8,9.4-16.6,8.3-32c-1.2-16.7-0.6-28.5,0-39
	l0.1-1.5c0.5,0.3,1,0.5,1.5,0.8c21.8,9.9,37.7-11.8,41.4-17.4c0.2,0,0.5,0,0.7,0c3.7-0.3,7.4-1.2,10.9-2.6c5.2-2,10.3-5.3,15.1-9.6
	c10.3-9.3,17.7-21.4,23.3-38.1l0.4-1.2c2.3-6.7,4.6-13.7,6-20.8c0.5-2.7,1.3-5.5,2-8.2c0.9-3.3,1.8-6.7,2.4-10.2l0.5-2.9
	c1.3-7.8,2.6-15.8,2.8-23.9c0-1.6,0.1-3.3,0.2-4.9c0.2-4.4,0.4-9,0.2-13.5c-0.4-9.3-1.3-17.7-2.9-25.7c-1-5.2-2.6-10.7-5-17.3
	c-0.6-1.7-0.7-2.7,0.3-4.1c1.3-1.7,1.8-4.1,2.2-5.9c1-5.4-0.9-10.3-3-14.9c-2.1-4.6-4.6-7.7-4.7-7.8l-1-1c-2-2.7-4.2-5.3-6.5-7.7
	C174.6,20.6,160,12.9,142,8.8c-5.7-1.4-10.4-2.3-14.6-2.9c-8.2-1.1-14.2-0.7-20.7,0.4c-3.5,0.6-6.1,1.4-8.8,2.9
	c-0.6,0.3-1.2,0.7-1.9,1.1c-0.4,0.2-0.8,0.5-1.2,0.7C88.1,15,81,22,84.1,33.4c-0.3,0.1-0.6,0.3-0.8,0.3c-0.8,0.2-1.5,0.4-2.3,0.6
	c-0.5,0.1-1,0.2-1.5,0.4c-8.7,2.3-16.2,6.4-22.3,12.4c-8.1,6.2-15.9,14-23.2,23.2C17.1,91.7,5.7,117.7,2.7,141.8
	C2.5,142.5,1.9,146.6,2.2,152.4z M119.5,39.3l5.1,0.6l-4.5-2.5c-9.1-4.9-22.7-5.4-29.3-4.9c-1.2-5.5,0.8-9.8,6.1-13.6
	c3-2.1,6.6-3.6,10.5-4.5c3.4-0.7,7.3-1.5,10.6-1.5l0,0l1,0.1c26,1.5,47.1,9.7,60.8,23.5c5.8,5.9,9.2,11.7,11,15.4
	c0.5,1.4,1,2.6,1.4,3.8c1,3.1,1,4.4,0,7c-3.9-5.3-8-9.3-12.7-12c-3.5-2-7.3-4.1-11.7-5.2c-8.4-2-16.1-0.4-21.1,1.3
	c-6.3,2.1-10.7,5.2-12.4,7.4l-0.4,0.7l0.9,1.2l0.7-0.2c0.4-0.1,0.6-0.4,1-0.7c1.4-1.3,5.2-4.6,19.2-5.2c12.8-0.5,23.6,6.3,32,20.3
	c6,10,8.1,21.4,9.4,31.2c1.1,8.9,1.5,18.4,1.1,28.9c-0.1,2.5-0.3,5-0.5,7.4c-0.1,1.5-0.3,3-0.4,4.4c-0.1,1-0.1,2-0.2,3
	c-0.2,3-2.2,14.3-2.4,15.4c-2,11.3-4.5,21.7-7.6,31.6c-2.5,8.3-5.5,17-9.9,25c-6.3,11.4-13.4,19.1-22.3,24c-6.2,3.4-11.6,4.9-17,4.6
	c-7.1-0.3-13.3-3.7-18.4-9.9c-4-4.9-7.1-10.3-9.6-16.5c-3.6-8.9-5.3-18.9-5.1-30.7c0.1-7,1.8-14.3,5-21.8
	c4.4-10.2,9.9-17.1,17.3-21.7c5.4-3.4,10.4-3.9,15.6-1.8c4.4,1.9,7.8,5.1,10.3,10c4.5,8.6,6.1,18.1,5,28.3c-0.2,2.1-0.6,4.2-0.9,6.2
	c-0.3,1.8-0.6,3.7-0.8,5.6c-0.6,4.6-3,11.1-6.4,16.6l-1.6,2.7l2.9-1.3c3.8-1.7,5.3-4.5,6.5-6.9c0.2-0.3,0.3-0.6,0.5-0.9
	c1.4-2.6,2.3-5.5,3.2-8.3l0-0.1c0.6-2,1.2-4,1.7-6c0-0.2,0.1-0.4,0.1-0.5c1.5,2.2,2.5,4.3,2.9,6.9l0.8,5.2l1.2-5.2
	c1.1-4.7,1.5-10.1-2.7-14.9c-0.5-0.6-0.7-2-0.8-2.5c-0.2-1.9-0.4-3.9-0.5-5.8c-0.3-3.5-0.6-7-1.2-10.5c-1.4-8.1-4.8-14.7-10-19.8
	c-3.6-3.5-7.1-5.5-11.2-6.2c-8.9-1.6-16.9,1-24.5,7.9c-1.1,1.1-2.2,2.1-3.4,3.3l-0.1,0.1c-0.1-0.2-0.2-0.3-0.3-0.5
	c-2-10.2-1.3-20.4-0.6-29.4c0.3-4.5,1.2-9.2,1.9-13.2c0.5-2.9,1.2-5.9,1.9-8.8c0.2-0.9,0.4-1.9,0.7-2.8c0.6-2.6,1.2-5.2,1.9-7.8
	l2.2-9l-3.2,5.1c-2.3,3.7-9.4,21.7-10.6,31.2c-0.3,2.5-0.5,5.1-0.6,7.5c-0.1,1.6-0.2,3.3-0.3,4.9c-0.5,5.7-0.4,11.2,0.3,16.4
	c-0.7-0.4-1.5-0.7-2.3-1c0.3-6.4-3-10.9-3.8-11.9c-1-1.6-6-9-17.1-11.7c-6.8-1.7-14.5-1.3-23,1.2c-3.4,1.2-6.5,2.6-9.4,4.2
	c-4.6,0.7-9.1,1.9-13.4,3.6l-5.8,2.3l6.2-0.4c1-0.1,2.1-0.1,3.1-0.2c0.5,0,1.1-0.1,1.6-0.1c-4.9,3.8-7.5,7.3-8.7,9.2l-2.5,4l3.9-2.6
	c18.4-12.4,34.4-17.4,46.2-14.6c9.3,2.2,12.9,8.4,13,8.7l0.1,0.2l0.3,0.4c0,0,3.2,3.8,2.2,9.1c-1.2,6.2-7.6,12.3-18.5,17.8
	c-10.5,5.3-18.3,10.7-24.6,15.1c-4.6,3.2-8.3,5.7-11.3,7.1c-3.8,1.6-7.8,2.2-11.7,1.8c-0.2,0-0.3,0-0.5-0.1
	C10.4,180.9,9,153.3,9,152.1c-0.3-5.4,0.4-9.2,0.4-9.2l0-0.2c4-32.1,23.1-66.5,48.7-87.6c1.8-1.2,3.8-2.5,5.8-3.9
	c3.9-2.6,7.9-5.4,10.2-6.6c5.5-2.9,11.5-4.3,18.2-5.7C98,37.8,107.2,37.9,119.5,39.3z M58.4,180.4c3.4-2.4,7.5-5.2,12.3-8.2
	c-1.4,6.1-2.2,12.5-2.5,19.1c-0.2-0.1-0.4-0.1-0.6-0.2c-1.4-0.4-2.5-0.7-3.5-0.9c-1.4-0.3-2.5-0.6-4.4-1.3l-5.8-2.1l4.8,3.8
	c3.6,2.9,5.7,4,9.4,5.8c0.1,26.9,9.9,54.4,23.8,67.3c-0.1,2-0.2,4-0.3,6l0,0c-0.6,10.7-1.2,22.8,0,39.9c0.9,12.9-1.1,22-5.9,26.3
	c-3.9,3.5-8.5,2.8-8.7,2.7l-0.4-0.1l-0.4,0c-0.3,0-7.2,0-13.8-6.8c-11.2-11.5-12.7-33.5-11.9-49.8c2-41.2,0.8-74.9-0.5-96.1
	C52.6,184.3,55.4,182.4,58.4,180.4z M79.1,167.3c1-0.5,2-1,3-1.6c10.8-5.5,17.8-11.7,20.8-18.5c2.8,1.2,5,3.6,6.3,6.8l-0.3,0.6
	l-0.1,0.1c-0.1,0.3-0.3,0.6-0.5,0.9c-1.1,1.9-2.1,3.7-3,5.7c-0.9,1.9-8.6,19.6-6,40.4c0.4,2.4,0.8,4.7,1.3,7.1
	c0.2,0.8,0.4,1.6,0.6,2.4c0.2,0.9,0.4,1.6,0.6,2.4c2.6,9.8,6.6,17.9,12.1,24.8c3.8,4.7,7.5,8,11.6,10.1c2.6,1.2,5.4,2,8.1,2.6
	c-1.7,2.2-4.1,5-7,7.5c-7.7,6.5-15.7,8-23.7,4.4c-9.5-4.3-18.6-18.4-23.7-36.7C73.6,206.4,73.6,184.9,79.1,167.3z"/>
</svg>
